<svg t="1628158578657" class="icon" viewBox="0 0 1024 1024" version="1.1" xmlns="http://www.w3.org/2000/svg" p-id="4159" width="48" height="48"><path d="M512 909.061224c-218.906122 0-397.061224-178.155102-397.061224-397.061224s178.155102-397.061224 397.061224-397.061224 397.061224 178.155102 397.061224 397.061224-178.155102 397.061224-397.061224 397.061224z" fill="#f1e810" p-id="4160" data-spm-anchor-id="a313x.7781069.0.i6" class=""></path><path d="M512 690.677551m-31.346939 0a31.346939 31.346939 0 1 0 62.693878 0 31.346939 31.346939 0 1 0-62.693878 0Z" fill="#d81e06" p-id="4161" data-spm-anchor-id="a313x.7781069.0.i4" class="selected"></path><path d="M512 584.097959c-11.493878 0-20.897959-9.404082-20.897959-20.897959v-261.22449c0-11.493878 9.404082-20.897959 20.897959-20.897959s20.897959 9.404082 20.897959 20.897959v261.22449c0 12.016327-9.404082 20.897959-20.897959 20.897959z" fill="#d81e06" p-id="4162" data-spm-anchor-id="a313x.7781069.0.i3" class="selected"></path></svg>